<svg width="115" height="31" viewBox="0 0 115 31" fill="none" xmlns="http://www.w3.org/2000/svg">
<g clip-path="url(#clip0)">
<path d="M15.8805 7.45137C15.8159 7.36683 15.5898 7.20713 15.2022 6.97228C14.8145 6.73743 14.33 6.49319 13.7486 6.23767C13.1671 5.98216 12.5315 5.75858 11.8427 5.56695C11.1703 5.37762 10.4746 5.28089 9.77538 5.27949C7.88 5.27949 6.93278 5.90795 6.93278 7.16392C6.93278 7.54719 7.03444 7.86658 7.23965 8.1221C7.44391 8.37761 7.74509 8.60683 8.14412 8.80879C8.54219 9.01077 9.04288 9.1977 9.64523 9.36773L10.981 9.73692L11.7458 9.94264C12.8441 10.2404 13.8341 10.5655 14.7176 10.9168C15.6003 11.2681 16.3489 11.7049 16.9627 12.2263C17.5749 12.746 18.0608 13.3956 18.384 14.1267C18.7165 14.8716 18.8846 15.7659 18.8846 16.8096C18.8846 18.0872 18.6424 19.1675 18.1578 20.0515C17.6733 20.9345 17.032 21.6484 16.2359 22.1914C15.4378 22.7344 14.5238 23.128 13.4902 23.3732C12.4565 23.6174 11.3905 23.7405 10.2922 23.7405C8.5424 23.7306 6.80263 23.478 5.12385 22.9899C4.28399 22.7456 3.47073 22.4526 2.68502 22.1116C1.92302 21.7841 1.19287 21.3886 0.503662 20.9298L2.82943 16.3625C2.91494 16.4686 3.19521 16.6715 3.66929 16.9693C4.14243 17.2671 4.72957 17.5658 5.42977 17.8636C6.12902 18.1614 6.90998 18.4272 7.77169 18.6621C8.63245 18.8969 9.50461 19.0134 10.3882 19.0134C12.2617 19.0134 13.1985 18.4498 13.1985 17.3206C13.1985 16.8951 13.0579 16.5438 12.7786 16.2666C12.4983 15.9895 12.1107 15.7396 11.6157 15.5161C11.1513 15.3105 10.674 15.1348 10.1868 14.99L8.56975 14.525L7.64248 14.2545C6.58695 13.9351 5.67204 13.5894 4.89678 13.2164C4.12152 12.8435 3.48118 12.4123 2.97479 11.9229C2.47779 11.4467 2.09195 10.869 1.84421 10.2301C1.59624 9.59131 1.47273 8.84637 1.47273 7.99434C1.47273 6.80131 1.69885 5.74825 2.15108 4.83234C2.58706 3.93717 3.21544 3.1469 3.99232 2.51673C4.79085 1.87626 5.70659 1.39372 6.68956 1.09543C7.71183 0.776038 8.79396 0.616341 9.93595 0.616341C10.7321 0.616341 11.5188 0.691492 12.294 0.839917C13.0693 0.98928 13.8122 1.18092 14.5229 1.41483C15.2335 1.64967 15.8957 1.91552 16.5085 2.21331C17.1232 2.5111 17.6885 2.80983 18.2053 3.10761L15.8796 7.45137H15.8805ZM38.1349 23.4849H32.9666V14.0628C32.9666 12.9769 32.7509 12.1784 32.3205 11.6674C31.8892 11.1563 31.2973 10.9008 30.5439 10.9008C30.2418 10.9008 29.914 10.9703 29.5587 11.1084C29.1849 11.2576 28.8363 11.4622 28.525 11.7153C28.1807 11.9917 27.8713 12.3081 27.6034 12.6575C27.3212 13.0237 27.1029 13.4339 26.9574 13.8712V23.4849H21.789V0.169189H26.9574V9.52743C27.5566 8.55045 28.4104 7.75069 29.4295 7.21183C30.4517 6.66886 31.5766 6.39737 32.8051 6.39737C33.9461 6.39737 34.8667 6.59464 35.5669 6.98825C36.2662 7.3828 36.8048 7.88255 37.182 8.4894C37.5583 9.09625 37.8119 9.77731 37.9411 10.5335C38.0703 11.2897 38.1349 12.029 38.1349 12.7533V23.4849ZM49.8588 23.8043C48.4156 23.8043 47.1292 23.5695 45.9987 23.1017C44.8681 22.6329 43.9152 21.9998 43.139 21.2013C42.3652 20.4047 41.7662 19.4587 41.3794 18.4226C40.9801 17.3653 40.7773 16.2454 40.7809 15.1168C40.7809 13.967 40.9804 12.8651 41.3794 11.8111C41.7665 10.7749 42.3659 9.82889 43.1399 9.03237C43.9152 8.23389 44.8681 7.5951 45.9987 7.11601C47.1292 6.63692 48.4156 6.39737 49.8588 6.39737C51.3019 6.39737 52.5826 6.63692 53.7028 7.11601C54.8229 7.5951 55.7701 8.23389 56.5454 9.03237C57.3207 9.83094 57.925 10.7761 58.322 11.8111C58.7314 12.8661 58.9394 13.9869 58.9357 15.1168C58.9393 16.2454 58.7365 17.3653 58.3372 18.4226C57.9504 19.4587 57.3514 20.4047 56.5777 21.2013C55.8024 21.9998 54.8486 22.6329 53.718 23.1017C52.5874 23.5704 51.3019 23.8043 49.8588 23.8043ZM46.0785 15.1168C46.0785 16.4367 46.4338 17.4963 47.1444 18.2948C47.8551 19.0933 48.7596 19.4925 49.8578 19.4925C50.3711 19.498 50.8791 19.3888 51.3437 19.1731C51.796 18.9599 52.1893 18.6621 52.5218 18.2788C52.8714 17.8687 53.1402 17.3975 53.3142 16.8895C53.5126 16.3193 53.6109 15.7198 53.6049 15.1168C53.6049 13.797 53.2496 12.7373 52.5389 11.9389C51.8283 11.1404 50.9343 10.7411 49.8578 10.7411C49.3459 10.7371 48.8391 10.8436 48.3731 11.0532C47.9071 11.2628 47.4929 11.5705 47.1596 11.9548C46.8107 12.3651 46.5426 12.8363 46.3692 13.3442C46.1708 13.9144 46.0725 14.5139 46.0785 15.1168ZM72.4676 11.0925C71.2182 11.1141 70.0877 11.316 69.0758 11.6993C68.064 12.0826 67.3315 12.6575 66.8793 13.424V23.4849H61.7109V6.71677H66.4593V10.1023C67.0408 8.97413 67.7894 8.09016 68.7044 7.45137C69.6193 6.81258 70.594 6.48286 71.6277 6.46125H72.1446C72.2519 6.46125 72.3602 6.47158 72.4676 6.49319V11.0925ZM85.8388 22.5906C85.0442 22.9175 84.2297 23.1948 83.4 23.4211C82.4851 23.6766 81.5645 23.8043 80.6382 23.8043C79.9921 23.8043 79.3841 23.7245 78.814 23.5648C78.2643 23.4161 77.7523 23.155 77.311 22.7982C76.8806 22.4469 76.5415 21.9838 76.2945 21.4089C76.0455 20.834 75.922 20.1416 75.922 19.3328V10.5814H73.7578V6.71677H75.922V1.38289H81.0904V6.71677H84.5468V10.5814H81.0904V17.5762C81.0904 18.1304 81.2301 18.5287 81.5103 18.7739C81.7906 19.0181 82.1459 19.1412 82.5763 19.1412C82.9639 19.1412 83.362 19.0773 83.7715 18.9496C84.18 18.8218 84.5363 18.6837 84.8375 18.5343L85.8388 22.5906ZM88.0022 0.169189H93.1705V17.5123C93.1705 18.7899 93.7197 19.4286 94.8179 19.4286C95.0764 19.4286 95.3614 19.3911 95.674 19.3169C95.9865 19.2417 96.2725 19.1309 96.53 18.9815L97.2083 22.8142C96.5623 23.112 95.8193 23.3469 94.9795 23.5169C94.1396 23.6869 93.3539 23.7724 92.6214 23.7724C91.1355 23.7724 89.9944 23.3891 89.1973 22.6226C88.4002 21.856 88.0022 20.7485 88.0022 19.3009V0.169189ZM98.8861 26.0082C99.3175 26.1575 99.7213 26.2637 100.097 26.3276C100.433 26.3877 100.774 26.4197 101.115 26.4234C101.74 26.4234 102.225 26.2101 102.569 25.7846C102.913 25.359 103.226 24.5916 103.505 23.4849L97.0449 6.71677H102.375L106.316 19.1092L109.707 6.71677H114.553L108.092 26.1998C107.666 27.5482 106.817 28.728 105.67 29.5694C104.507 30.4318 103.129 30.8629 101.535 30.8629C101.096 30.8623 100.659 30.8249 100.227 30.7512C99.7691 30.6721 99.3205 30.5491 98.8871 30.3839V26.0082H98.8861Z" fill="#34313D"/>
</g>
<defs>
<clipPath id="clip0">
<rect width="114.958" height="31" fill="white"/>
</clipPath>
</defs>
</svg>
